<svg id="Layer_1" data-name="Layer 1" xmlns="http://www.w3.org/2000/svg" viewBox="0 0 98.4 412"><defs><style>.cls-1{fill:#9e1f63;}.cls-2{opacity:0.43;}.cls-3{fill:#fff;}.cls-4{fill:#731648;opacity:0.4;}</style></defs><path class="cls-1" d="M365,461h89s9.9-293,0-388c-1.31-12.57-12-24-44.5-24-30.5,0-43,11.45-44.5,24C353.75,166,365,461,365,461Z" transform="translate(-360 -49)"/><g class="cls-2"><path class="cls-3" d="M381.57,90a48.31,48.31,0,0,1,19.65-21.92c2.78-1.62.26-5.94-2.53-4.32a52.8,52.8,0,0,0-21.43,23.72,2.57,2.57,0,0,0,.89,3.42,2.52,2.52,0,0,0,3.42-.9Z" transform="translate(-360 -49)"/></g><path class="cls-4" d="M382.44,458h53.88s6-252.46,0-334.32c-.79-10.83-7.26-20.68-26.94-20.68-18.46,0-26,9.87-26.94,20.68C375.63,203.81,382.44,458,382.44,458Z" transform="translate(-360 -49)"/></svg>